<?xml version="1.0" encoding="utf-8"?>
<!DOCTYPE svg PUBLIC "-//W3C//DTD SVG 1.0//EN" "http://www.w3.org/TR/2001/REC-SVG-20010904/DTD/svg10.dtd">
<svg version="1.0" xmlns="http://www.w3.org/2000/svg" width="612px" height="595px" viewBox="0 0 612 595" preserveAspectRatio="xMidYMid meet">
 <g fill="#ffffff">
  <path d="M0 559 l0 -36 3 0 3 0 0 -13.50 0 -13.50 1.65 0 c1.45 0 2.75 1.25 14.30 13.50 12.35 13.20 12.70 13.50 14.60 13.50 l1.95 0 0 -16.75 0 -16.75 -2 0 -2 0 -0.05 7.90 c0 4.30 0 9.95 0.05 12.50 l0.10 4.60 -2.05 0 c-1.95 0 -2.15 -0.20 -13.65 -12.35 l-11.60 -12.40 -3.65 -0.15 -3.65 -0.15 0 -18.45 0 -18.50 17.70 0 17.65 0 0.35 -1.55 c0.15 -0.85 0.30 -33.50 0.30 -72.50 l0 -70.95 1.70 0 c1.55 0 2.95 1.40 20.40 19.90 42.35 44.90 71.45 75.85 93.90 99.75 l23.75 25.30 16.65 0 16.60 0.05 0 -96.25 0 -96.25 -17.25 0 -17.25 0 0 70.25 0 70.25 -1.75 0 c-1.40 0 -2.10 -0.40 -3.85 -2.35 -1.20 -1.30 -30.80 -32.90 -65.80 -70.25 l-63.65 -67.90 -19.70 0 -19.75 0 0 -130 0 -130 306 0 306 0 0 130 0 130 -18.50 0 -18.50 0 0 19.65 c-0.15 114.55 -0.15 113.05 -3.15 121.65 -4.05 11.50 -13.40 18.20 -29.30 20.95 -11.85 2 -29.05 2.20 -42.55 0.50 -5.05 -0.65 -14.60 -2.40 -22.40 -4.10 l-1.10 -0.25 0.10 16.15 0.15 16.20 2.75 0.60 c5.25 1.20 19.85 2.60 32.25 3.15 26.15 1.20 46.10 -1.20 61.10 -7.25 13.40 -5.40 23.30 -14.35 29.35 -26.60 3.65 -7.30 6.50 -17.35 7.15 -25.25 0.25 -3.15 0.40 -3.40 1.45 -3.40 l1.20 0 0 101.50 0 101.50 -306 0 -306 0 0 -36z m439 24 l0 -8.50 1.25 0 1.30 0 -1.15 -1.50 c-2.05 -2.80 -1.75 -10.55 0.50 -13.10 0.70 -0.85 0.65 -0.90 -0.55 -0.90 -1.10 0 -1.35 -0.25 -1.35 -1.25 0 -0.80 -0.30 -1.25 -0.75 -1.25 -0.65 0 -0.75 2.25 -0.75 17.15 0 9.45 0.15 17.35 0.35 17.50 0.95 1 1.15 -0.40 1.15 -8.15z m-255 -0.25 l0 -8.25 1.20 0 1.20 0 -0.95 -1.80 c-2.05 -4.10 -1.65 -10.40 0.90 -12.90 l1.30 -1.30 -1.85 0 c-1.45 0 -1.80 -0.20 -1.80 -1 0 -0.55 -0.35 -1 -0.75 -1 -0.65 0 -0.75 2.25 -0.75 17.25 0 15 0.10 17.25 0.75 17.25 0.65 0 0.75 -1.25 0.75 -8.25z m341.95 4.40 c1.50 -1.55 2.65 -3.95 6.20 -12.90 6.20 -15.85 6.95 -17.85 6.30 -17.65 -0.30 0.10 -1.95 4 -3.65 8.65 l-3.10 8.50 -1.75 0.15 c-1.60 0.15 -1.80 0 -2.30 -1.50 -1.25 -3.80 -5.75 -15.20 -6.15 -15.60 -0.95 -0.95 -0.95 0.05 -0.05 2.50 0.55 1.35 2.30 5.80 4 9.90 3.30 8.15 3.65 10.25 2.20 13.90 -1.30 3.45 -2.45 4.40 -5.25 4.40 -1.80 0 -2.40 0.20 -2.40 0.75 0 0.55 0.55 0.75 2.05 0.75 1.75 0 2.35 -0.30 3.90 -1.85z m-356.45 -10.90 c0.80 -0.40 1.60 -0.95 1.75 -1.25 0.15 -0.25 -0.55 0 -1.60 0.60 -1.40 0.85 -2.70 1.15 -4.90 1.15 -5.75 0 -9.25 -2.80 -9.25 -7.40 l0 -2.35 9.25 0 9.25 0 0 -1.35 c0 -1.55 -1.40 -4.85 -2.70 -6.40 -0.80 -0.95 -0.80 -0.90 -0.05 0.60 0.80 1.70 1.05 5.90 0.35 6.35 -0.25 0.15 -3.95 0.10 -8.25 -0.05 l-7.85 -0.30 0 -1.95 c0 -1.10 0.25 -2.45 0.55 -3 0.40 -0.80 0.40 -0.95 -0.05 -0.65 -1.05 0.65 -2.50 4.40 -2.50 6.55 0 2.50 1 5 2.80 7.15 3.15 3.80 8.55 4.70 13.20 2.30z m132.30 0.25 c1.15 -0.50 2.25 -1.15 2.40 -1.45 0.20 -0.30 -0.50 -0.05 -1.55 0.55 -4.05 2.40 -11.55 0.95 -13.40 -2.60 -0.40 -0.80 -0.75 -2.45 -0.75 -3.75 l0 -2.25 9.25 0 9.25 0 0 -1.35 c0 -1.60 -1.60 -5.35 -2.50 -5.90 -0.45 -0.30 -0.45 -0.15 -0.05 0.65 0.30 0.55 0.55 2.05 0.55 3.30 0 1.85 -0.20 2.30 -0.85 2.35 -3.50 0.25 -13.60 0.40 -14.50 0.20 -1 -0.25 -1.15 -0.60 -1.15 -2.40 0 -1.20 0.45 -2.85 1 -3.85 l1.05 -1.75 -1.30 1.50 c-5.50 6.40 -2.40 15.70 6 17.80 1.85 0.45 3.85 0.15 6.55 -1.05z m47.20 1 c2.40 -0.65 6.65 -3.40 6.25 -4 -0.20 -0.30 -0.90 0 -1.80 0.70 -1.85 1.55 -4.40 2.30 -7.95 2.30 -6.70 -0.05 -10.55 -2.20 -13.10 -7.35 -1.50 -3.05 -1.65 -3.80 -1.65 -7.65 0.05 -5.85 1.15 -9 4.45 -12.25 1.80 -1.80 3.25 -2.75 4.90 -3.20 3.35 -0.95 9.10 -0.55 11.95 0.85 2.80 1.35 3.35 1.40 2.20 0.10 -1.35 -1.45 -5.90 -3 -9 -3 -8.15 0 -15.55 6.90 -16.55 15.55 -0.55 4.70 2.45 11.55 6.40 14.55 4.55 3.45 9.45 4.65 13.90 3.40z m-268.50 -0.45 c-1.50 -0.15 -3.10 -0.50 -3.50 -0.70 -0.40 -0.25 -0.30 -0.05 0.20 0.35 0.65 0.55 1.85 0.75 3.50 0.75 l2.55 -0.10 -2.75 -0.30z m63.25 -16.05 c0 -15.05 -0.05 -16.25 -0.85 -16.40 -0.85 -0.15 -0.90 0.75 -0.90 13.85 l0 14.05 -1.90 0 -1.90 0 -9.40 -14 c-9.25 -13.70 -9.45 -14 -11.10 -14 l-1.70 0 0 16.25 c0 15.90 0 16.25 1 16.25 1 0 1 -0.35 1 -14 l0 -14 1.70 0 c1.85 0 0.80 -1.40 14.90 19.65 5.80 8.65 6 8.90 7.55 8.75 l1.60 -0.15 0 -16.25z m55.90 14.70 c3 -2.10 5 -6.10 4.70 -9.55 -0.40 -5.75 -5.40 -10.35 -10.75 -10 -4.15 0.30 -4.05 1.10 0.15 1.10 3.35 0 3.85 0.15 5.60 1.55 2.65 2.15 3.15 3.35 3.15 7.95 0 4.95 -0.95 7 -4 8.60 -1.55 0.85 -3 1.15 -5.20 1.15 -2.25 0 -2.85 0.15 -2.30 0.55 0.40 0.25 2.05 0.40 3.65 0.30 2.15 -0.10 3.35 -0.50 5 -1.65z m23.05 1.35 c0.15 -0.25 -0.75 -0.55 -2 -0.70 -3.85 -0.40 -3.95 -0.70 -3.95 -10.25 l0 -8.35 3.15 -0.15 c2.20 -0.10 3.10 -0.35 2.95 -0.75 -0.10 -0.40 -1.10 -0.55 -2.85 -0.40 -3.20 0.20 -3.50 -0.15 -3.50 -4.05 0 -2.25 -0.15 -2.90 -0.75 -2.90 -0.60 0 -0.75 0.70 -0.75 3.20 l0 3.25 -2.60 0.15 c-3.65 0.20 -3.85 1.40 -0.20 1.40 l2.75 0 0.15 8.45 0.15 8.50 1.45 1.50 c1.20 1.25 1.90 1.55 3.60 1.55 1.20 0 2.25 -0.20 2.40 -0.45z m19.60 -0.25 c0.85 -0.65 0.75 -0.70 -1.10 -0.45 -2.90 0.40 -5.60 -0.60 -6.75 -2.55 -0.85 -1.35 -0.95 -2.55 -0.95 -9.40 0 -7.30 -0.05 -7.90 -0.90 -7.90 -0.85 0 -0.90 0.55 -0.70 7.65 0.10 4.15 0.40 8.20 0.70 9 0.30 0.75 1.30 2.05 2.25 2.85 1.35 1.20 2.15 1.50 4.05 1.50 1.35 0 2.85 -0.30 3.40 -0.70z m35.60 -7.50 c-0.15 -7.40 -0.25 -8.35 -1.20 -9.65 -2.45 -3.30 -6.35 -4.55 -9.20 -2.90 -1.20 0.65 -1.05 0.70 2.15 0.75 3.10 0 3.55 0.15 4.90 1.45 l1.45 1.45 0 7.75 c0 8.20 0.15 9.35 1.35 9.35 0.65 0 0.70 -1.20 0.55 -8.20z m101.65 7.05 c4 -2.15 6.95 -7.30 6.25 -11 -0.85 -4.60 -6.40 -9.35 -10.85 -9.35 -5.55 0 -10.95 5.30 -10.95 10.75 0 3.75 2.80 7.85 6.75 9.90 2.25 1.20 6.20 1.05 8.80 -0.30z m47.70 -7.15 c0 -7.35 -0.10 -8.10 -1.10 -9.75 -1.55 -2.50 -3.95 -3.70 -6.65 -3.30 -1.15 0.15 -2.35 0.50 -2.60 0.75 -0.35 0.35 0.15 0.45 1.50 0.25 2.60 -0.35 5.45 0.60 6.50 2.25 0.70 1.05 0.90 2.80 1.05 9.75 0.10 6.05 0.30 8.35 0.75 8.20 0.40 -0.15 0.55 -2.60 0.55 -8.15z m25.55 7.50 c2.45 -1.15 4.95 -4.20 5.90 -7.10 0.80 -2.40 0.80 -2.80 0.05 -5.35 -1.75 -6.10 -7.90 -9.75 -12.90 -7.60 -1.30 0.55 -1.05 0.60 2.25 0.60 2.75 0 4.10 0.25 5.40 1 5.15 3 5.40 13.25 0.45 16.80 -1.45 1 -2.30 1.20 -5.60 1.20 -3.20 0 -3.70 0.10 -3 0.65 1.20 0.85 5.45 0.75 7.45 -0.20z m23.45 0.55 c-1.20 -0.40 -5.80 -0.60 -5.15 -0.20 0.35 0.25 1.80 0.40 3.15 0.40 1.40 0 2.30 -0.10 2 -0.20z m-386.55 -18.10 c-1.70 -2.20 -3.95 -3.15 -7.30 -3.10 l-2.65 0.10 3.25 0.35 c4 0.40 5.40 1.10 6.25 3.15 0.85 2.10 0.90 10.40 0.05 12.90 -0.65 1.80 -0.60 1.95 0.25 1.95 0.70 0 1 0.40 1.05 1.40 0.05 0.75 0.20 -2.35 0.25 -6.85 l0.20 -8.15 -1.35 -1.75z m160.30 7.70 c0 -5.60 -0.15 -10.35 -0.35 -10.50 -0.15 -0.20 -0.60 -0.10 -1 0.20 -0.50 0.45 -0.65 2.35 -0.65 7.80 0 5.45 -0.20 7.55 -0.75 8.65 -0.75 1.40 -0.70 1.50 0.25 1.50 0.75 0 1 0.35 1 1.25 0 0.80 0.30 1.25 0.75 1.25 0.65 0 0.75 -1.45 0.75 -10.15z m11.50 2.80 c0 -6.50 0.15 -7.60 1 -9 1 -1.65 1 -1.65 0 -1.65 -0.75 0 -1 -0.35 -1 -1.30 0 -0.90 -0.25 -1.25 -0.85 -1.10 -0.75 0.15 -0.85 1.30 -1 10.30 -0.20 9.95 -0.20 10.10 0.80 10.10 1 0 1.05 -0.25 1.05 -7.35z m134.60 0.25 c0.15 -5.50 0.40 -7.50 1.05 -8.75 1.05 -2 1.05 -2.15 -0.15 -2.15 -0.75 0 -1 -0.35 -1 -1.25 0 -0.80 -0.30 -1.25 -0.75 -1.25 -0.65 0 -0.75 1.45 -0.75 10.25 0 8.40 0.10 10.25 0.70 10.25 0.55 0 0.75 -1.50 0.90 -7.10z m16 -0.75 c0.10 -4.35 0.35 -8.30 0.60 -8.75 0.35 -0.75 0.15 -0.90 -0.85 -0.90 -0.70 0 -1.35 -0.35 -1.55 -0.75 -0.75 -2 -5.45 -3.45 -7.30 -2.25 -0.55 0.35 -0.35 0.50 0.90 0.50 2.70 0 4.90 1.20 5.55 3 0.30 0.95 0.55 4.80 0.55 9 0 4.05 0.15 7.50 0.35 7.65 0.15 0.20 0.60 0.35 0.95 0.35 0.45 0 0.65 -1.95 0.80 -7.85z m72.40 -0.05 c0 -7.75 0 -7.95 -1.30 -9.65 -0.75 -0.95 -1.15 -1.25 -0.90 -0.70 0.20 0.55 0.40 2.25 0.45 3.75 l0 2.75 -4 0.30 -4 0.25 4.20 0.10 4.15 0.10 -0.20 3.40 c-0.15 1.85 -0.40 3.75 -0.65 4.25 -0.25 0.60 -0.15 0.85 0.45 0.85 0.50 0 0.80 0.45 0.80 1.25 0 0.70 0.25 1.25 0.50 1.25 0.30 0 0.50 -2.95 0.50 -7.90z m11.50 0.40 c0 -5.80 0.20 -7.90 0.75 -9 0.75 -1.40 0.70 -1.50 -0.20 -1.50 -0.70 0 -1.05 -0.40 -1.15 -1.35 -0.10 -0.80 -0.35 -1.40 -0.65 -1.40 -0.30 0 -0.55 3.90 -0.65 10.40 -0.10 10.10 -0.10 10.35 0.90 10.35 0.95 0 1 -0.30 1 -7.50z m16.05 2.15 c0.05 -8.65 -0.05 -10.30 -1 -11.90 -1.85 -3.25 -6.10 -4.65 -9.05 -3 -1.20 0.65 -1.15 0.65 0.80 0.40 2.90 -0.40 5.60 0.60 6.75 2.55 0.85 1.35 0.95 2.55 0.95 9.45 0 6.65 0.10 7.85 0.75 7.85 0.60 0 0.75 -0.95 0.80 -5.35z m-42.70 3.95 c-1.15 -1.25 -1.15 -5.45 0 -7.10 l0.80 -1.25 -1.30 1.20 c-2.05 1.85 -2.25 4.15 -0.65 6.30 0.75 0.95 1.50 1.75 1.65 1.75 0.15 0 -0.05 -0.40 -0.50 -0.90z m-393.60 -3.35 c0 -3.65 0 -3.70 -0.95 -2.75 -0.55 0.50 -0.95 1.60 -0.95 2.40 0 0.80 0.40 2.05 0.95 2.75 0.50 0.75 0.95 1.35 0.95 1.35 0 0 0 -1.70 0 -3.75z m9.40 -6.60 c-0.65 -0.10 -1.75 -0.10 -2.50 0 -0.80 0.10 -0.25 0.20 1.10 0.20 1.40 0 2 -0.10 1.40 -0.20z m396.35 -7.90 c0 -0.75 -3.30 -1.75 -5.60 -1.65 l-2.65 0.05 3 0.30 c1.65 0.20 3.45 0.60 4 0.90 1.15 0.70 1.25 0.75 1.25 0.40z m-315.85 -1.60 c-0.65 -0.10 -1.75 -0.10 -2.50 0 -0.80 0.10 -0.25 0.20 1.10 0.20 1.40 0 2 -0.10 1.40 -0.20z m132.75 0 c-0.80 -0.10 -2 -0.10 -2.75 0 -0.80 0.10 -0.15 0.20 1.35 0.20 1.50 0 2.15 -0.10 1.40 -0.20z m-218.90 -32.70 c6.80 -1.10 11.85 -4.65 14.60 -10.40 1.35 -2.75 1.60 -3.85 1.60 -6.80 -0.10 -10.65 -8.35 -17.75 -20.70 -17.75 -10.90 0 -18.30 5.55 -20 14.90 -1.30 7.35 3.05 15.20 10.30 18.40 4.65 2.05 8.80 2.55 14.20 1.65z m213.25 -0.65 c3.95 -1.20 7.15 -3.50 8.25 -5.95 0.55 -1.15 1 -2.60 1 -3.20 0 -2.05 -1.65 -4.65 -3.95 -6.20 -3 -1.95 -5.70 -2.70 -14.45 -4 -4.05 -0.60 -8.30 -1.45 -9.45 -2 l-2.15 -0.90 0 -2.95 c0 -2.40 0.20 -3.10 1.15 -4 1.75 -1.65 5.25 -2.25 11.75 -2 6.50 0.25 8.50 0.85 10.90 3.35 1.25 1.30 1.80 1.55 2.90 1.25 1.85 -0.45 1.65 -1.35 -0.80 -3.40 -3.05 -2.65 -6.80 -3.90 -12.55 -4.20 -7.70 -0.40 -12.65 1.05 -15.75 4.60 -3 3.45 -2.45 7.35 1.55 10.30 2.80 2.05 5.40 2.80 14.10 4 4.90 0.70 8.25 1.45 9.75 2.15 l2.25 1.10 0.15 2.95 c0.15 2.45 0 3.10 -0.95 4.10 -1.75 1.90 -5.05 2.70 -10.90 2.70 -6.90 0 -10.55 -1 -13.20 -3.65 -1.80 -1.80 -2.05 -1.90 -3.70 -1.50 l-1.80 0.40 1.40 1.70 c4.65 5.50 15.80 7.95 24.50 5.35z m206.50 0.15 c5.65 -1.05 8.60 -3.45 10 -8.05 0.55 -2 0.75 -5.20 0.75 -14 l0 -11.40 -2.25 0 -2.20 0 -0.15 13.20 c-0.15 12.40 -0.20 13.25 -1.15 14.30 -2.15 2.35 -3.60 2.75 -10.35 2.70 l-6.40 0 0 1.60 c0 1.65 0.05 1.65 2.65 1.85 5.35 0.35 6.25 0.35 9.10 -0.20z m-382.65 -7.05 l0.15 -7.15 7 0 7 0 5.40 7.15 c5.30 7 5.40 7.10 7.35 7.10 l1.95 0 -4.20 -5.55 c-3.65 -4.75 -4.25 -5.85 -4.25 -7.50 0 -1.45 0.20 -1.95 0.80 -1.95 1.70 0 5.40 -2.30 6.75 -4.20 2.65 -3.55 2.40 -7.60 -0.60 -11.05 -2.55 -2.90 -4.75 -3.25 -19.30 -3.25 l-12.65 0 0 16.75 0 16.75 2.25 0 2.20 0 0.15 -7.10z m65.40 -8.15 l0 -15.25 8.25 0 8.25 0 0 -1.50 0 -1.50 -18.75 0 -18.75 0 0 1.50 0 1.50 8.25 0 8.25 0 0 15.25 0 15.25 2.25 0 2.25 0 0 -15.25z m36 7.55 l0 -7.65 3.05 -0.35 c3.95 -0.40 18.90 -0.40 22.35 0.05 l2.65 0.30 -0.10 7.55 -0.05 7.55 1.70 0.15 c1 0.10 1.95 -0.10 2.20 -0.50 0.25 -0.35 0.40 -7.60 0.30 -16.75 l-0.15 -16.15 -1.95 0 -2 0 0 6.70 c0 5.05 -0.15 6.80 -0.70 7.25 -0.45 0.40 -4.55 0.55 -13.85 0.45 l-13.20 -0.15 -0.15 -7.10 -0.15 -7.15 -2.20 0 -2.25 0 0 16.75 0 16.75 2.25 0 2.25 0 0 -7.70z m117.75 -1.50 c0.20 -5.05 0.30 -11.85 0.20 -15.10 l-0.20 -5.95 8 -0.25 8 -0.25 0.15 -1.35 0.15 -1.40 -18.75 0 -18.80 0 0 1.50 0 1.50 8.50 0 8.45 0 -0.30 7.90 c-0.15 4.30 -0.10 11.15 0.10 15.25 l0.35 7.35 1.90 0 1.90 0 0.35 -9.20z m26.60 7.70 c0.35 -0.70 1.20 -2.55 1.90 -4.10 l1.30 -2.90 11.95 0 c8.85 0.05 12.05 0.20 12.35 0.65 0.20 0.35 1.10 2.20 1.95 4.10 1.50 3.35 1.65 3.50 3.40 3.65 l1.80 0.15 -2.70 -5.65 c-1.45 -3.10 -5.10 -10.60 -8.10 -16.65 l-5.45 -11 -3 -0.15 -3 -0.10 -8.30 16.75 -8.35 16.80 1.80 -0.15 c1.35 -0.10 2 -0.45 2.45 -1.40z m55.15 -5.75 l0 -7.25 3.90 0.05 c2.10 0.05 5.40 0.20 7.30 0.40 l3.45 0.30 5.05 6.75 c4.80 6.40 5.15 6.75 6.95 6.90 1 0.10 1.85 0 1.85 -0.15 0 -0.20 -1.80 -2.70 -4 -5.55 -3.35 -4.40 -4 -5.55 -4 -7.10 0 -1.80 0.10 -1.90 2.50 -2.75 8.20 -2.90 9.25 -12.50 1.85 -16.50 -2 -1.05 -2.75 -1.10 -15.70 -1.25 l-13.65 -0.15 0 16.75 0 16.80 2.25 0 2.25 0 0 -7.25z m141.90 5.65 l-0.15 -1.60 -13 0 -13 -0.05 0 -6.25 0 -6.25 11.15 -0.15 11.10 -0.10 0 -1.50 0 -1.50 -11.10 -0.10 -11.15 -0.15 -0.15 -5.60 -0.15 -5.65 13.05 0 13 0 0 -1.50 0 -1.50 -15.25 0 -15.25 0 0 16.75 0 16.75 15.55 0 15.50 0 -0.15 -1.60z m33.35 -1.50 c0.20 -1.75 0.30 -8.55 0.20 -15.15 l-0.20 -12 8.40 -0.15 8.35 -0.10 0 -1.50 0 -1.50 -19.05 0 -19 0 0.15 1.40 0.15 1.35 8.40 0.15 8.35 0.10 0 15.25 0 15.25 1.95 0 1.95 0 0.35 -3.10z m-218.25 -63.65 c35.40 -4.40 57.80 -16.85 67.85 -37.75 3.95 -8.20 5.75 -19.20 4.70 -28.20 -2.85 -23.35 -20.15 -38.50 -53.20 -46.50 -9.60 -2.30 -16.25 -3.40 -65.60 -10.60 -26.70 -3.90 -38.15 -8.50 -41.65 -16.65 -1.05 -2.50 -1.05 -10.05 0.10 -13.30 3.50 -10.40 17.80 -16.85 41.50 -18.75 8.20 -0.65 16.30 -0.65 24.85 0 29.75 2.35 47 10.75 55.10 27 l2.15 4.30 3.45 -1.10 c1.95 -0.60 9.40 -2.95 16.55 -5.30 l13.10 -4.20 -1.45 -3.35 c-3.30 -7.80 -8.45 -14.95 -15.40 -21.45 -12.75 -12 -31.55 -19.60 -58.05 -23.50 -7 -1 -9.60 -1.10 -27.25 -1.15 -21.10 0 -25.65 0.40 -39.15 3.45 -34.30 7.75 -53.10 27.50 -51.95 54.50 0.25 6.70 1.20 10.75 3.60 16.15 4.70 10.30 13 18.30 25.75 24.85 13.10 6.70 24.50 9.75 49 13.05 27.20 3.65 46.55 6.30 48.75 6.75 19.35 3.80 30.15 9.55 33.20 17.75 0.95 2.55 1.10 3.70 0.95 7.75 -0.20 3.95 -0.45 5.20 -1.60 7.40 -4.80 9.35 -17.15 15.65 -37.05 18.90 -3.15 0.50 -9.60 0.90 -17.55 1.05 -18.20 0.40 -31.10 -1.15 -43.20 -5.15 -15.45 -5.15 -25.85 -13.30 -32.95 -25.85 -0.95 -1.65 -1.95 -2.85 -2.30 -2.75 -4.50 1 -33.25 10.30 -33.25 10.75 0 1.30 5.25 10.90 8.10 14.75 16.75 22.65 44.30 34.85 86.15 38.10 5.75 0.45 30.80 -0.20 36.75 -0.95z m28.10 -237.85 c-6.35 -19.05 -19.50 -59.05 -21.15 -64.10 -1.85 -5.80 -2.20 -5.30 8.45 -12.90 14.55 -10.45 44.65 -32.10 51.60 -37.10 3.45 -2.45 8 -5.75 10.15 -7.25 l3.90 -2.80 -47.05 -0.25 -47.10 -0.25 -6.85 -21 c-17.05 -52.20 -21.75 -66.25 -22.10 -65.90 -0.30 0.35 -13.40 39.85 -24.35 73.40 -2.30 7.15 -4.40 13.25 -4.65 13.55 -0.25 0.30 -2.30 0.70 -4.60 0.90 -10.60 0.80 -50.70 3.95 -64.35 5.05 -13.95 1.15 -64.70 5.20 -97.75 7.80 -7.40 0.55 -16.75 1.35 -20.75 1.70 -9.65 0.85 -15.80 0.80 99.25 0.75 54.20 0 98.75 0 99.05 0 0.30 0 4.10 -10.80 8.45 -24 l7.95 -24 1.85 0 c2.20 0 1.20 -2.45 10.80 26.85 l6.90 21.15 26.15 0 26.15 0 -0.15 1.90 c-0.15 2.05 0.05 1.90 -30.75 23.90 -5.60 4 -10.15 7.40 -10.15 7.60 0 0.20 0.75 2.70 1.70 5.60 0.95 2.90 4.35 13.20 7.50 22.90 3.20 9.75 5.80 18.45 5.80 19.40 0 1.60 -0.10 1.70 -1.75 1.70 -1.50 0 -3.40 -1.20 -11.65 -7.10 -13.55 -9.75 -14.50 -10.40 -23.10 -16.55 l-7.55 -5.40 -3.60 2.60 c-2 1.45 -11.85 8.55 -21.95 15.80 -10.15 7.30 -18.40 13.30 -18.40 13.40 0 0.25 0.80 0 23.40 -6.80 9.95 -3 18.95 -5.45 20 -5.45 1.90 0 7.90 4.15 45.35 31.25 25.30 18.30 30.90 22.25 31.10 22.05 0.15 -0.10 -2.45 -8.40 -5.75 -18.40z m-295.70 -108.25 c-0.80 -0.10 -2 -0.10 -2.75 0 -0.80 0.10 -0.15 0.20 1.35 0.20 1.50 0 2.15 -0.10 1.40 -0.20z"/>
  <path d="M370.25 575.60 c-2.65 -1.25 -3.60 -2.40 -4.20 -5.10 -1.25 -5.30 -0.10 -9.80 3 -11.85 2.85 -1.85 7.45 -2.10 10.40 -0.55 3.65 1.90 4.30 3.20 4.30 8.65 0 5.05 -0.50 6.25 -3.40 8.45 -2 1.45 -7.40 1.65 -10.10 0.40z"/>
  <path d="M68.25 519.85 c-4.30 -1.45 -6.30 -3 -8.05 -6.35 -0.75 -1.40 -0.90 -2.90 -0.95 -7.25 0 -4.95 0.15 -5.80 1.25 -8 2.40 -4.70 9.20 -7.25 17.25 -6.60 5.30 0.45 7.90 1.55 10.45 4.40 2.50 2.80 3.30 5.25 3.30 10.40 0 4.15 -1.35 8.25 -3.40 10.20 -2.70 2.60 -5.80 3.55 -12.10 3.70 -3.75 0.10 -6.45 -0.10 -7.75 -0.50z"/>
  <path d="M116.60 498.90 l0.15 -6.65 7.50 -0.15 c4.15 -0.05 9.30 0.10 11.50 0.35 5.30 0.65 6.25 1.60 6.25 6.50 0 6.10 -1 6.50 -15.65 6.55 l-9.90 0 0.15 -6.60z"/>
  <path d="M369 509.50 c0 -1.35 1 -4.05 3.45 -9.20 l3.50 -7.30 1.80 0 1.80 0 3.50 7.35 c2.65 5.60 3.45 7.75 3.35 9.10 l-0.15 1.80 -8.60 0.10 -8.65 0.10 0 -1.95z"/>
  <path d="M417.50 499 l0 -6.50 1.30 -0.30 c0.75 -0.20 5.50 -0.25 10.65 -0.10 12.55 0.35 13.55 0.85 13.55 7 0 5.85 -1.35 6.40 -15.70 6.40 l-9.80 0 0 -6.50z"/>
 </g>
 <g fill="#e41937">
  <path d="M181.20 592.55 c-0.35 -0.40 -0.20 -37.50 0.20 -37.70 0.20 -0.10 1.35 -0.10 2.50 0.05 1.85 0.20 2.15 0.35 1.95 1.15 -0.35 1.20 0.40 1.20 2.15 -0.05 1.75 -1.25 5.90 -2.10 8.15 -1.65 2.60 0.50 6.20 2.50 7.30 4.10 4.20 5.85 3.25 14.70 -1.95 18.50 -4.35 3.15 -11.80 3.05 -14.45 -0.15 -0.40 -0.45 -0.85 -0.80 -1.10 -0.80 -0.25 0 -0.40 3.60 -0.35 8.25 0.10 4.55 0.05 8.25 -0.10 8.30 -1.15 0.15 -4.15 0.15 -4.30 0z m15.80 -18.70 c3.05 -1.60 4.10 -3.75 3.90 -7.80 -0.20 -3.05 -0.30 -3.30 -2.30 -5.10 -3.55 -3.10 -7.45 -3.05 -10.65 0.25 -3.90 3.90 -2.15 11.45 3.05 13.45 1.60 0.60 3.95 0.30 6 -0.80z"/>
  <path d="M436.25 592.55 c-0.30 -0.30 -0.40 -7.70 -0.25 -19.15 0.25 -17.55 0.30 -18.65 1.15 -18.80 1.95 -0.40 3.35 0.35 3.35 1.75 0 1.20 0.05 1.25 0.90 0.50 2.75 -2.50 8.75 -3.25 12.60 -1.50 4.15 1.80 7 6.60 7 11.70 0 3.05 -1.80 7.15 -4.05 9.20 -2.65 2.40 -4 2.85 -8.35 2.85 -3.35 0 -3.90 -0.15 -5.90 -1.60 l-2.20 -1.55 0 8.50 0 8.55 -1.90 0 c-1.05 0 -2.10 -0.20 -2.35 -0.45z m16.25 -19.05 c1.85 -1.30 3.50 -4.50 3.50 -6.75 0 -0.80 -0.45 -2.45 -0.95 -3.60 -2.95 -6.45 -12.35 -5.55 -14.10 1.35 -1.50 5.70 2.40 10.85 7.90 10.30 1.10 -0.10 2.80 -0.70 3.65 -1.30z"/>
  <path d="M519.50 590.55 c-0.75 -0.20 -1.25 -0.70 -1.20 -1.20 0.15 -3.50 0.05 -3.35 2.60 -3.35 2.90 0 4.05 -1 5.40 -4.80 l0.85 -2.55 -1.85 -4.70 c-1.05 -2.60 -2.65 -6.60 -3.65 -8.95 -4.55 -11.05 -4.45 -10.40 -1.40 -10.40 1.25 0.05 2.50 0.35 2.75 0.65 0.25 0.35 1.35 2.95 2.45 5.80 1.05 2.85 2.50 6.65 3.20 8.45 l1.25 3.25 0.70 -1.75 c0.40 -0.95 1.80 -4.80 3.15 -8.50 1.30 -3.70 2.75 -7.05 3.15 -7.35 1 -0.80 4.60 -0.85 4.60 -0.10 0 0.35 -0.75 2.55 -1.70 4.90 -11.45 29.25 -11.55 29.50 -15.20 30.55 -2.05 0.55 -3.25 0.55 -5.10 0.05z"/>
  <path d="M77.20 579 c-5.15 -1.60 -6.85 -8.25 -3 -11.95 2.10 -2.05 5.45 -3.05 10.10 -3.05 2 0 3.75 -0.20 3.95 -0.50 0.65 -1.05 -1.20 -4.05 -2.95 -4.75 -2.50 -1.05 -3.70 -0.95 -6.80 0.60 l-2.65 1.30 -1.20 -1.35 c-0.60 -0.75 -1.15 -1.55 -1.15 -1.75 0 -0.20 1.20 -1 2.65 -1.70 2.15 -1.10 3.30 -1.35 6.50 -1.35 4.65 0 6.75 0.80 8.55 3.15 1.35 1.75 1.35 1.75 1.45 11.55 l0.10 9.80 -1.65 -0.10 c-1.85 -0.10 -2.85 -1 -2.40 -2.15 0.35 -1 -0.40 -0.95 -1.25 0.05 -1.60 1.95 -7.15 3.15 -10.25 2.20z m8.55 -5.05 c1.65 -1.45 3.05 -4.75 2.60 -6.10 -0.30 -0.90 -6.35 -0.40 -8.75 0.70 -2.20 1.10 -2.95 2.50 -2.40 4.60 0.35 1.50 1.95 2.25 4.65 2.30 1.70 0.05 2.50 -0.25 3.90 -1.50z"/>
  <path d="M161 579.05 c-3.80 -0.80 -6.75 -3.30 -8.25 -6.90 -1 -2.35 -0.95 -8.20 0.05 -10.55 3.75 -9.05 17.30 -9.95 21.45 -1.40 0.70 1.55 1.25 3.65 1.35 5.30 l0.15 2.75 -9.35 0.15 c-10.45 0.15 -10.50 0.15 -8.30 3.40 2.65 3.85 9.05 4.35 11.85 1 0.90 -1.10 1.55 -1 3.30 0.40 l1.50 1.20 -1.25 1.35 c-2.45 2.70 -8.25 4.25 -12.50 3.30z m9.35 -14.85 c0.45 -1.25 -1.15 -4.10 -2.95 -5.20 -3.05 -1.85 -7.05 -0.80 -9.25 2.50 -1.95 2.80 -1.75 2.95 4.50 3.15 3.05 0.05 6 0.20 6.50 0.25 0.50 0.05 1 -0.25 1.20 -0.70z"/>
  <path d="M217.95 579.15 c-0.75 -0.10 -1.95 -0.90 -2.75 -1.70 l-1.45 -1.50 -0.15 -8.50 -0.15 -8.45 -2.75 0 -2.75 0 0.15 -2.10 0.15 -2.15 2.65 -0.15 2.60 -0.15 0 -3.25 0 -3.20 2.20 0 c2.45 0 3.10 0.80 2.50 3.20 -0.15 0.70 -0.20 1.80 0 2.45 0.25 1 0.55 1.15 3.15 1.10 l2.90 0 0.15 2.10 0.15 2.10 -3.15 0.15 -3.15 0.15 0 6.85 c0.05 8.20 0.30 8.70 4.25 8.55 l2.45 -0.10 -0.30 1.85 c-0.15 1 -0.40 2 -0.60 2.15 -0.40 0.45 -4.55 0.85 -6.10 0.60z"/>
  <path d="M236.35 579.05 c-1 -0.20 -2.45 -0.95 -3.15 -1.60 -2.50 -2.30 -2.75 -3.35 -2.90 -13.15 l-0.20 -9.20 2.05 -0.20 c1.15 -0.15 2.25 -0.15 2.50 -0.05 0.20 0.10 0.35 3.70 0.35 7.95 0 6.05 0.15 8.10 0.80 9.25 1 2 3.45 3 5.85 2.45 4.20 -0.90 4.85 -2.55 4.85 -11.65 0 -8.05 0.20 -8.55 3.10 -8.25 l1.65 0.15 0 12 0 12 -2.25 0 c-2.15 0 -2.25 -0.05 -2.15 -1.35 l0.10 -1.35 -2.10 1.45 c-2.30 1.60 -5.45 2.15 -8.50 1.55z"/>
  <path d="M293.75 579.05 c-3.80 -0.95 -7.10 -3.90 -8.30 -7.40 -0.35 -1.05 -0.65 -3.25 -0.65 -4.90 -0.05 -5.05 2 -8.70 6.25 -11 2.15 -1.15 3.20 -1.40 5.95 -1.35 6.35 0 10.30 3.40 11.50 9.70 0.90 4.55 1.25 4.40 -9.30 4.40 -10.10 0 -10 -0.05 -8.45 3 0.75 1.50 2.75 2.80 5.35 3.50 1.80 0.55 4.50 -0.20 6.35 -1.75 1.80 -1.55 1.95 -1.55 3.80 0 l1.50 1.25 -1.85 1.70 c-2.85 2.70 -7.90 3.85 -12.15 2.85z m8.65 -14.55 c2.40 0 0.45 -4.25 -2.65 -5.70 -3.35 -1.60 -7.80 0.20 -9.25 3.70 -0.90 2.20 -0.40 2.40 5.65 2.20 2.80 -0.10 5.60 -0.20 6.25 -0.20z"/>
  <path d="M340.25 579.05 c-3.65 -0.95 -7.65 -3.75 -9.75 -6.80 -5.35 -7.80 -4.40 -18.95 2.20 -25.15 3.50 -3.30 7.20 -4.65 12.60 -4.65 4.95 0 8.80 1.30 11.15 3.75 l1.60 1.65 -2.05 1.65 -2.05 1.65 -1.35 -1.30 c-1.60 -1.55 -5.05 -2.85 -7.50 -2.85 -3.25 0 -5.75 1.10 -8.40 3.75 -4.65 4.60 -5.70 11 -2.75 16.95 2.05 4.15 4.75 6.15 9.20 6.90 4.05 0.70 6.80 -0.05 9.50 -2.60 l2.10 -1.90 2 1.70 2 1.65 -1.40 1.45 c-0.80 0.80 -2.60 2.10 -4 2.90 -2.25 1.20 -3.25 1.45 -7.10 1.55 -2.45 0.05 -5.15 -0.05 -6 -0.30z"/>
  <path d="M372.25 579.05 c-3.70 -0.65 -7.15 -3.30 -8.95 -6.90 -1.15 -2.35 -1.10 -8.65 0.15 -11.05 3.20 -6.15 10.80 -8.55 17.25 -5.40 4.40 2.15 6.80 6.10 6.80 11.15 -0.05 8.10 -7 13.70 -15.25 12.20z m6.70 -5.40 c2.55 -1.95 3.30 -3.50 3.30 -6.90 0 -3.80 -0.95 -5.45 -4.30 -7.15 -5.80 -3 -11.95 2.40 -10.45 9.20 0.65 2.90 1.55 4 4.25 5.30 2.40 1.10 5.30 0.90 7.20 -0.45z"/>
  <path d="M470.25 578.75 c-3.80 -1.35 -5.65 -4.90 -4.65 -8.75 1.05 -3.85 4.20 -5.55 10.80 -5.90 5.15 -0.25 5.65 -0.60 4.60 -3.05 -1.30 -3.15 -5.90 -3.75 -10.10 -1.40 l-1.90 1.10 -1.20 -1.50 c-1.15 -1.40 -1.20 -1.55 -0.40 -2.20 3.55 -2.85 10.80 -3.60 14.50 -1.55 1 0.60 2.35 1.75 2.95 2.65 1.05 1.50 1.10 2.20 1.15 10.60 0 4.95 0.05 9.25 0 9.55 0 0.35 -0.85 0.60 -2 0.60 -1.90 0.05 -2 -0.05 -2 -1.45 0 -0.80 -0.20 -1.45 -0.50 -1.45 -0.25 0 -0.50 0.20 -0.50 0.45 0 0.95 -3.35 2.45 -6 2.75 -1.85 0.20 -3.40 0.05 -4.75 -0.45z m8.15 -4.25 c1.75 -1.10 3.10 -3.60 3.10 -5.80 l0 -1.35 -3.95 0.25 c-4.40 0.25 -6.80 1.50 -7.35 3.75 -0.90 3.45 4.40 5.45 8.20 3.15z"/>
  <path d="M114.75 578.60 c-0.15 -0.15 -0.25 -8.20 -0.25 -17.95 l0 -17.65 3.20 0 3.15 0 9.45 14 c5.15 7.70 9.55 14 9.80 14 0.20 0 0.35 -6.25 0.35 -13.85 l-0.05 -13.90 2.40 0 2.45 0 0 17.75 0 17.75 -3.10 0.15 -3.10 0.15 -5.95 -8.90 c-3.30 -4.90 -7.65 -11.35 -9.65 -14.35 l-3.70 -5.50 -0.15 14.35 -0.10 14.35 -2.25 -0.10 c-1.25 0 -2.35 -0.20 -2.50 -0.30z"/>
  <path d="M258.25 578.50 c-0.30 -0.50 -0.25 -22.45 0.10 -23.25 0.10 -0.30 1.15 -0.55 2.30 -0.55 1.90 0.05 2.10 0.20 2.35 1.50 0.25 1.35 0.30 1.40 0.95 0.60 1.30 -1.55 3.75 -2.45 6.55 -2.45 4.25 0 7.50 2.15 8.50 5.70 0.30 0.95 0.50 5.60 0.50 10.30 l0 8.65 -2.20 0 c-1.55 0 -2.30 -0.25 -2.50 -0.80 -0.15 -0.45 -0.30 -4.25 -0.30 -8.55 l0 -7.75 -1.45 -1.45 c-2.75 -2.70 -7.35 -1.70 -9.30 2.05 -0.55 1.10 -0.75 3.30 -0.75 8.90 l0 7.45 -2.25 0.05 c-1.20 0.05 -2.35 -0.15 -2.50 -0.40z"/>
  <path d="M393.20 578.25 c-0.15 -0.30 -0.15 -5.65 -0.10 -11.95 l0.15 -11.45 2 -0.05 c1.80 -0.05 2 0.10 2.15 1.30 l0.15 1.30 2.45 -1.50 c1.95 -1.20 2.95 -1.50 5.20 -1.45 3 0 5.30 0.95 6.45 2.55 0.70 1 0.75 1 2.25 -0.40 2.75 -2.60 7.85 -3.10 11.25 -1.15 0.80 0.45 1.90 1.60 2.50 2.55 1.05 1.65 1.10 2.35 1.10 11.25 l0 9.50 -2.10 0.15 c-1.20 0.10 -2.15 0 -2.15 -0.25 -0.05 -0.20 -0.10 -4 -0.15 -8.40 -0.05 -5.55 -0.30 -8.35 -0.75 -9.15 -0.85 -1.45 -3.50 -2.65 -5.15 -2.30 -4.25 0.95 -4.95 2.75 -4.95 12.75 l0 7.50 -2.10 -0.10 c-1.20 -0.10 -2.30 -0.35 -2.50 -0.65 -0.20 -0.30 -0.40 -3.85 -0.40 -7.85 0 -8.50 -0.45 -10.25 -2.80 -11.25 -2.60 -1.10 -5.30 0.10 -6.85 3.05 -0.95 1.75 -1.10 2.90 -1.20 9 -0.05 3.85 -0.10 7.15 -0.10 7.35 -0.05 0.55 -4.15 0.20 -4.35 -0.35z"/>
  <path d="M493 578.50 c-0.35 -0.20 -0.45 -4.60 -0.40 -12.05 l0.15 -11.70 1.20 -0.15 c0.60 -0.10 1.70 -0.05 2.40 0.15 1.05 0.25 1.20 0.50 0.95 1.50 -0.20 0.70 -0.10 1.25 0.20 1.25 0.25 0 0.50 -0.20 0.50 -0.50 0 -0.65 3.40 -2.35 5.55 -2.75 2.20 -0.40 5.35 0.40 7.15 1.80 2.60 2.05 2.90 3.35 3 13 0.10 4.90 0 9.10 -0.15 9.40 -0.20 0.30 -1.25 0.45 -2.30 0.40 l-2 -0.15 -0.25 -8.20 c-0.15 -5.55 -0.45 -8.65 -0.90 -9.40 -1.85 -3.25 -7.75 -2.85 -9.75 0.60 -0.35 0.65 -0.70 4.15 -0.85 9.05 l-0.25 8 -1.90 0 c-1 0.05 -2.10 -0.10 -2.35 -0.25z"/>
  <path d="M336.25 458.70 c-41.65 -3.20 -69.40 -15.45 -86.05 -38 -4 -5.35 -9.95 -17.10 -9.10 -17.95 0.10 -0.10 8.20 -2.70 17.95 -5.70 9.70 -3 18.05 -5.60 18.50 -5.80 0.65 -0.25 1.30 0.50 2.70 3.10 2.50 4.45 6.55 9.80 9.55 12.70 13.80 13.20 35.90 19.55 65.45 18.80 14.40 -0.35 23.40 -1.80 33.35 -5.30 13.20 -4.70 20.65 -11.90 21.25 -20.55 0.80 -11.55 -10.25 -19.35 -34.10 -24 -2.20 -0.45 -21.55 -3.10 -48.75 -6.75 -18.65 -2.55 -26.35 -4.15 -36.85 -7.80 -7.15 -2.50 -17.15 -7.55 -21.90 -11.05 -9.40 -6.95 -15.75 -15.90 -18.50 -25.90 -1.35 -4.95 -1.60 -17.10 -0.50 -22.80 5 -25.55 25.30 -40.30 63.85 -46.35 6.60 -1 8.80 -1.10 28.15 -1.10 19.20 0 21.65 0.10 28.75 1.15 26.50 3.90 45.30 11.50 58.05 23.50 7.25 6.80 12.35 14 15.80 22.35 1.80 4.40 1.95 5.20 1.05 5.50 -10.65 3.45 -33.95 10.90 -34.70 11.10 -0.90 0.20 -1.35 -0.45 -3.35 -4.45 -8.45 -17 -25.85 -25.35 -57.30 -27.50 -13.50 -0.90 -27.70 0.25 -39.10 3.10 -11.70 3 -19.90 8.70 -22.20 15.60 -1 2.90 -1.05 8.20 -0.10 10.50 3.40 8.10 14.95 12.70 41.60 16.60 49.35 7.20 56 8.30 65.60 10.60 24.55 5.95 40.20 15.75 48.25 30.25 6.95 12.50 7.05 33.30 0.25 47.45 -6.35 13.20 -17.75 23.15 -33.85 29.50 -10 4 -20.85 6.60 -34 8.25 -5.95 0.75 -33.65 1.40 -39.75 0.95z"/>
  <path d="M506.75 455.95 c-9.25 -0.50 -24.35 -2.10 -28.75 -3.10 l-2.75 -0.60 -0.15 -18.15 c-0.10 -17.15 -0.05 -18.15 0.75 -17.90 20.10 5.95 46.25 7.75 65.20 4.55 15.90 -2.75 25.25 -9.45 29.30 -20.95 2.90 -8.20 2.85 -6.45 2.95 -76.05 0.05 -35.20 0.10 -64.30 0.15 -64.60 0.05 -0.50 4.25 -0.65 19.30 -0.65 l19.25 0 0 67.20 c0 37 -0.20 67.35 -0.45 67.50 -0.20 0.15 -0.55 1.80 -0.70 3.65 -0.95 11.15 -5.70 24.70 -11.55 32.80 -2.10 2.95 -7.20 8.25 -10.70 11.10 -7.20 5.95 -20.60 11.20 -34.35 13.50 -11.15 1.85 -31.05 2.55 -47.50 1.70z"/>
  <path d="M2.15 454.10 l-2.15 -0.15 0 -97.75 0 -97.70 20.50 0 20.45 0 63.65 67.90 c35 37.35 64.60 68.95 65.80 70.25 1.15 1.30 2.25 2.35 2.35 2.35 0.15 0 0.25 -31.60 0.25 -70.25 l0 -70.25 18.75 0 18.75 0 0 97.70 c0 77.70 -0.15 97.75 -0.60 97.90 -1.25 0.40 -35.50 0 -35.85 -0.40 -1.25 -1.45 -127.60 -135.65 -133.15 -141.45 l-3.35 -3.50 -0.10 71.75 c-0.10 77.55 -0.10 72.80 -0.50 73.25 -0.35 0.30 -31.05 0.60 -34.80 0.35z"/>
 </g>
 <g fill="#a8aaae">
  <path d="M68.75 524.90 c-10.85 -2.05 -17.20 -11.55 -15.30 -22.65 1.80 -10.15 8.95 -15.25 21.55 -15.25 11.05 -0.05 18.05 3.80 21.10 11.45 0.85 2.20 1.10 3.85 1.10 7.80 0.05 4.65 -0.10 5.25 -1.55 8.30 -2.80 5.75 -7.85 9.35 -14.65 10.40 -3.85 0.65 -8.80 0.60 -12.25 -0.05z m14 -7.35 c3.40 -1.50 5.05 -3.20 6.25 -6.40 1.90 -5.05 1.05 -9.85 -2.35 -13.65 -2.25 -2.50 -4.45 -3.55 -9.05 -4.25 -3.25 -0.50 -8.65 0.60 -11.65 2.40 -3.80 2.30 -5.20 5.20 -5.15 10.60 0.05 6.70 2.40 9.90 8.95 12.10 3.05 1 9.95 0.60 13 -0.80z"/>
  <path d="M280 525.20 c-7.70 -1.40 -12.35 -4.05 -14.55 -8.30 -0.50 -1.05 -0.95 -1.95 -0.95 -2.10 0 -0.10 1.60 -0.70 3.60 -1.30 3.45 -1.05 3.60 -1.05 4.05 -0.15 1.95 3.55 6.90 5.65 13.40 5.65 6.40 0 10.70 -2.20 10.35 -5.30 -0.25 -2.30 -3.30 -3.45 -12.15 -4.70 -8.70 -1.20 -11.30 -1.95 -14.10 -4 -2.45 -1.80 -3.65 -4.15 -3.65 -7.15 0 -4.90 2.85 -8.30 8.20 -9.95 3.15 -0.90 9.10 -1.30 13.35 -0.85 7.45 0.75 12.35 3.30 14.50 7.55 0.55 1.10 0.95 2.05 0.85 2.15 -0.10 0.05 -1.60 0.60 -3.40 1.20 -3.10 1 -3.30 1.05 -3.85 0.20 -2.55 -3.65 -4.85 -4.70 -10.75 -5.05 -7.15 -0.40 -11.40 1.30 -11.40 4.50 0 1.25 0.35 1.60 2.15 2.35 1.15 0.55 5.40 1.40 9.45 2 8.75 1.30 11.45 2.05 14.45 4 2.75 1.85 3.95 4.20 3.95 7.70 -0.05 5.30 -3.05 8.75 -9.25 10.65 -2.45 0.75 -11.80 1.35 -14.25 0.90z"/>
  <path d="M488.50 524.55 l-2.75 -0.30 0.15 -3.25 c0.10 -1.80 0.25 -3.30 0.35 -3.40 0.10 -0.10 2 0.10 4.30 0.40 4.95 0.70 8.35 0.30 10.55 -1.20 2.80 -1.85 2.90 -2.40 2.90 -16.10 l0 -12.55 3.30 -0.30 c1.85 -0.20 3.55 -0.20 3.75 -0.05 0.25 0.15 0.45 6.05 0.45 13.15 0 14.10 -0.35 16.65 -2.85 19.55 -3.15 3.80 -9.85 5.15 -20.15 4.05z"/>
  <path d="M0 506.30 c0 -10.05 0.15 -18.30 0.40 -18.40 0.20 -0.10 2.15 -0.05 4.35 0.10 l4.05 0.25 11.60 12.40 c6.40 6.80 11.85 12.35 12.10 12.35 0.20 0 0.35 -5.55 0.35 -12.30 -0.10 -10.50 0 -12.35 0.65 -12.65 0.60 -0.25 3.50 -0.30 6.15 -0.10 0.20 0.05 0.35 8.25 0.35 18.30 l0 18.25 -3.45 0 -3.45 0 -12.65 -13.50 -12.70 -13.45 -0.15 13.45 -0.10 13.50 -3.75 0 -3.75 0 0 -18.20z"/>
  <path d="M110.50 506.25 l0 -18.25 10.15 -0.10 c19 -0.10 21.85 0.20 24.45 2.95 3.10 3.20 3.85 9.15 1.75 13.20 -1.30 2.45 -4.25 4.75 -6.70 5.25 -0.90 0.15 -1.65 0.50 -1.65 0.70 0 0.20 2.25 3.35 5 7 2.75 3.60 5 6.80 5 7.05 0 0.25 -1.90 0.45 -4.25 0.45 l-4.20 0 -5.40 -7.10 -5.40 -7.05 -5.50 0 -5.50 0.05 -0.15 7.05 -0.15 7.05 -3.70 0 -3.75 0 0 -18.25z m26.25 -2.75 c2.50 -0.55 3.75 -2.05 3.75 -4.55 0 -3.20 -1.50 -4.40 -6.25 -5 -2.20 -0.30 -6.70 -0.45 -10 -0.35 l-6 0.15 -0.15 5.15 -0.15 5.10 8.40 0 c4.60 0 9.30 -0.25 10.40 -0.50z"/>
  <path d="M176 509.25 l0 -15.25 -8.40 0 -8.40 0 0.05 -2.75 c0.05 -1.50 0.20 -2.85 0.30 -3 0.15 -0.10 9.25 -0.25 20.20 -0.25 l20 -0.10 0.15 3.05 0.15 3.05 -8.30 0 -8.25 0 0 15.25 0 15.25 -3.75 0 -3.75 0 0 -15.25z"/>
  <path d="M212 506.30 l0 -18.15 3.35 -0.35 c1.80 -0.20 3.50 -0.15 3.70 0.05 0.25 0.25 0.50 3.55 0.55 7.40 l0.15 7 11.70 0.15 c7.45 0.05 11.90 -0.05 12.30 -0.40 0.45 -0.35 0.60 -2.50 0.60 -7.15 l0 -6.60 2.95 -0.35 c4.85 -0.55 4.45 -2.25 4.40 17.85 0 11.25 -0.25 18 -0.55 18.30 -0.25 0.25 -1.95 0.45 -3.70 0.35 l-3.20 -0.15 0.10 -7.55 0.10 -7.55 -2.60 -0.35 c-3.40 -0.40 -15.35 -0.40 -19.30 0 l-3.05 0.35 0 7.65 0 7.70 -3.75 0 -3.75 0 0 -18.20z"/>
  <path d="M329.85 524.15 c-0.10 -0.20 -0.20 -7.10 -0.15 -15.25 l0.05 -14.90 -8.40 0 -8.40 0 0.15 -3.10 0.15 -3.15 9.15 0.15 c5 0.05 14.10 0.10 20.25 0.10 l11.10 0 0.10 2.45 c0.05 1.50 -0.15 2.65 -0.55 3 -0.35 0.30 -3.80 0.60 -8.20 0.65 l-7.60 0.15 -0.15 15 -0.15 15 -3.55 0.15 c-1.95 0.10 -3.65 -0.05 -3.80 -0.25z"/>
  <path d="M355.50 524.15 c0 -0.20 4 -8.40 8.90 -18.20 10 -20.15 8.60 -18.45 14.80 -17.95 l2.95 0.25 1.95 3.75 c4.20 8.30 15.40 31.50 15.40 32 0 0.35 -1.35 0.50 -3.80 0.40 l-3.85 -0.15 -1.55 -3.50 c-0.85 -1.90 -1.70 -3.75 -1.90 -4.05 -0.25 -0.40 -3.60 -0.55 -10.90 -0.50 l-10.55 0.05 -1.60 3.50 c-0.90 1.95 -1.80 3.80 -2 4.15 -0.45 0.65 -7.85 0.90 -7.85 0.25z m29.35 -14.80 c0.25 -0.30 -6.75 -14.85 -7.10 -14.85 -0.35 0 -7.25 14.30 -7.25 15 0 0.40 13.95 0.25 14.35 -0.15z"/>
  <path d="M411.50 506.25 l0 -18.25 1.15 0 c15.60 -0.20 26.95 0 28.65 0.45 4.75 1.30 7.70 5 7.70 9.70 0 5.45 -2.35 9.05 -7 10.70 -1.35 0.50 -2.50 1.05 -2.50 1.25 0 0.15 2.25 3.30 5 6.90 2.75 3.65 5 6.85 5 7.10 0 0.25 -1.95 0.35 -4.35 0.30 l-4.40 -0.15 -5.15 -6.85 -5.10 -6.90 -2.90 -0.05 c-1.55 -0.05 -4.15 -0.10 -5.70 -0.15 l-2.90 -0.10 0 7.15 0 7.15 -3.75 0 -3.75 0 0 -18.25z m26.30 -2.80 c2.60 -0.65 3.70 -2 3.70 -4.35 0 -4.45 -1.90 -5.25 -12.70 -5.40 -4.65 -0.05 -8.75 0 -9.10 0.15 -0.55 0.20 -0.70 1.50 -0.70 5.20 l0 4.95 8.30 0 c4.55 0 9.25 -0.25 10.50 -0.55z"/>
  <path d="M527 506.25 l0 -18.25 16.75 0 16.75 0 0 3 0 3 -13 0 -13.05 0 0.15 4.15 0.15 4.10 10.25 0.10 c5.65 0.05 10.65 0.15 11.15 0.15 0.80 0 0.90 0.40 0.75 3.05 l-0.15 3.05 -11 0.05 -11 0.10 0 4.75 0 4.75 13 0 13 0 0.15 3.15 0.15 3.10 -17.05 0 -17 0 0 -18.25z"/>
  <path d="M587 509.25 l0 -15.25 -8.35 -0.10 -8.40 -0.15 -0.15 -2.85 -0.15 -2.90 20.55 0 20.50 0 0 3 0 3 -8.35 0.10 -8.35 0.15 0.15 12.35 c0.05 6.75 0 13.55 -0.20 15.10 l-0.35 2.80 -3.45 0 -3.45 0 0 -15.25z"/>
  <path d="M398.50 232.70 c-37.35 -27.05 -65.40 -47.20 -66.25 -47.50 -0.30 -0.15 -12.55 3.35 -27.25 7.80 -14.65 4.40 -26.80 7.85 -26.95 7.70 -0.15 -0.20 -0.05 -0.40 0.20 -0.50 0.45 -0.20 40.60 -28.95 50.75 -36.35 1.75 -1.30 3.45 -2.30 3.75 -2.15 0.25 0.10 4 2.70 8.25 5.75 4.25 3.10 9.10 6.55 10.75 7.70 1.65 1.20 7.45 5.35 12.90 9.30 5.50 3.90 10.05 7.05 10.15 6.90 0.20 -0.15 -4.20 -13.80 -13.55 -42.20 l-2.15 -6.55 1.10 -1 c0.55 -0.55 3.55 -2.70 6.55 -4.90 14.70 -10.45 33.75 -24.30 34.05 -24.75 0.20 -0.30 -8.70 -0.45 -25.85 -0.45 l-26.10 0.10 -6.95 -21.20 c-7.95 -24.15 -8.90 -26.90 -9.35 -26.90 -0.20 0 -3.90 10.80 -8.30 24 -4.35 13.20 -8.15 24 -8.45 24 -0.30 0 -52.30 0.05 -115.55 0.15 -63.25 0.10 -117.90 0 -121.50 -0.15 l-6.50 -0.25 3.75 -0.40 c2.05 -0.20 6.55 -0.60 10 -0.85 3.45 -0.30 15.95 -1.30 27.75 -2.25 11.85 -0.95 27.35 -2.20 34.50 -2.75 19.85 -1.55 67.65 -5.35 84.75 -6.75 13.75 -1.10 54 -4.30 64.35 -5.05 2.30 -0.20 4.35 -0.60 4.60 -0.90 0.25 -0.30 2.35 -6.40 4.65 -13.55 14 -42.80 25.55 -77.25 25.95 -77.25 0.25 0 0.70 0.50 0.95 1.15 0.40 0.95 27.90 84.90 28.95 88.35 l0.40 1.25 49.10 0.25 49.10 0.25 -2.40 1.80 c-2.95 2.15 -13.95 10.10 -31.90 22.95 -7.40 5.30 -19 13.65 -25.75 18.50 -6.75 4.85 -13.80 9.90 -15.65 11.20 -1.90 1.35 -3.30 2.70 -3.20 3 0.10 0.30 0.60 1.80 1.05 3.30 0.50 1.50 4 12.20 7.80 23.75 18.05 54.75 21 63.80 21 64.25 0 0.30 -0.15 0.50 -0.35 0.45 -0.25 0 -6.15 -4.15 -13.15 -9.25z"/>
 </g>
</svg>